<svg width="26" height="26" viewBox="0 0 26 26" fill="none" xmlns="http://www.w3.org/2000/svg">
<path d="M23.8337 13.0001H21.147C20.6735 12.9991 20.2128 13.1532 19.8352 13.4388C19.4576 13.7244 19.184 14.1259 19.0562 14.5817L16.5103 23.6384C16.4939 23.6947 16.4597 23.7441 16.4128 23.7792C16.3659 23.8144 16.3089 23.8334 16.2503 23.8334C16.1917 23.8334 16.1347 23.8144 16.0878 23.7792C16.0409 23.7441 16.0067 23.6947 15.9903 23.6384L10.0103 2.36175C9.99392 2.30549 9.95971 2.25607 9.91283 2.22091C9.86595 2.18575 9.80893 2.16675 9.75033 2.16675C9.69173 2.16675 9.63471 2.18575 9.58783 2.22091C9.54095 2.25607 9.50673 2.30549 9.49033 2.36175L6.94449 11.4184C6.81716 11.8725 6.54515 12.2726 6.16976 12.5581C5.79437 12.8436 5.33609 12.9987 4.86449 13.0001H2.16699" stroke="#1E7770" stroke-width="2.38333" stroke-linecap="round" stroke-linejoin="round"/>
</svg>
