<svg width="26" height="26" viewBox="0 0 26 26" fill="none" xmlns="http://www.w3.org/2000/svg">
<path d="M3.25 7.58333V5.41667C3.25 4.84203 3.47827 4.29093 3.8846 3.8846C4.29093 3.47827 4.84203 3.25 5.41667 3.25H7.58333" stroke="#1E7770" stroke-width="2.38333" stroke-linecap="round" stroke-linejoin="round"/>
<path d="M18.417 3.25H20.5837C21.1583 3.25 21.7094 3.47827 22.1157 3.8846C22.5221 4.29093 22.7503 4.84203 22.7503 5.41667V7.58333" stroke="#1E7770" stroke-width="2.38333" stroke-linecap="round" stroke-linejoin="round"/>
<path d="M22.7503 18.4167V20.5834C22.7503 21.1581 22.5221 21.7092 22.1157 22.1155C21.7094 22.5218 21.1583 22.7501 20.5837 22.7501H18.417" stroke="#1E7770" stroke-width="2.38333" stroke-linecap="round" stroke-linejoin="round"/>
<path d="M7.58333 22.7501H5.41667C4.84203 22.7501 4.29093 22.5218 3.8846 22.1155C3.47827 21.7092 3.25 21.1581 3.25 20.5834V18.4167" stroke="#1E7770" stroke-width="2.38333" stroke-linecap="round" stroke-linejoin="round"/>
<path d="M13 16.25C14.7949 16.25 16.25 14.7949 16.25 13C16.25 11.2051 14.7949 9.75 13 9.75C11.2051 9.75 9.75 11.2051 9.75 13C9.75 14.7949 11.2051 16.25 13 16.25Z" stroke="#1E7770" stroke-width="2.38333" stroke-linecap="round" stroke-linejoin="round"/>
<path d="M17.3337 17.3332L15.2754 15.2749" stroke="#1E7770" stroke-width="2.38333" stroke-linecap="round" stroke-linejoin="round"/>
</svg>
