<svg width="26" height="26" viewBox="0 0 26 26" fill="none" xmlns="http://www.w3.org/2000/svg">
<path d="M2.23373 12.6229C2.14344 12.8661 2.14344 13.1337 2.23373 13.3769C3.11307 15.5091 4.6057 17.3321 6.5224 18.6149C8.43909 19.8977 10.6935 20.5826 12.9999 20.5826C15.3063 20.5826 17.5607 19.8977 19.4774 18.6149C21.3941 17.3321 22.8867 15.5091 23.7661 13.3769C23.8563 13.1337 23.8563 12.8661 23.7661 12.6229C22.8867 10.4907 21.3941 8.6677 19.4774 7.38488C17.5607 6.10206 15.3063 5.41724 12.9999 5.41724C10.6935 5.41724 8.43909 6.10206 6.5224 7.38488C4.6057 8.6677 3.11307 10.4907 2.23373 12.6229Z" stroke="#1E7770" stroke-width="2.38333" stroke-linecap="round" stroke-linejoin="round"/>
<path d="M13 16.25C14.7949 16.25 16.25 14.7949 16.25 13C16.25 11.2051 14.7949 9.75 13 9.75C11.2051 9.75 9.75 11.2051 9.75 13C9.75 14.7949 11.2051 16.25 13 16.25Z" stroke="#1E7770" stroke-width="2.38333" stroke-linecap="round" stroke-linejoin="round"/>
</svg>
