<svg width="26" height="26" viewBox="0 0 26 26" fill="none" xmlns="http://www.w3.org/2000/svg">
<path d="M22.7501 13C23.3481 13 23.8389 12.5136 23.7793 11.9189C23.5295 9.43172 22.4273 7.10746 20.6596 5.34013C18.8919 3.57281 16.5674 2.47116 14.0802 2.22195C13.4844 2.16237 12.999 2.65312 12.999 3.25112V11.9178C12.999 12.2051 13.1132 12.4807 13.3163 12.6838C13.5195 12.887 13.795 13.0011 14.0824 13.0011L22.7501 13Z" stroke="#1E7770" stroke-width="2.38333" stroke-linecap="round" stroke-linejoin="round"/>
<path d="M22.9773 17.2143C22.2881 18.8441 21.2101 20.2803 19.8377 21.3973C18.4652 22.5143 16.84 23.2781 15.1041 23.6219C13.3682 23.9657 11.5746 23.8791 9.87994 23.3695C8.18531 22.86 6.6413 21.9431 5.38289 20.699C4.12448 19.4548 3.19 17.9214 2.66114 16.2327C2.13228 14.544 2.02514 12.7514 2.3491 11.0118C2.67306 9.2721 3.41824 7.63826 4.5195 6.25312C5.62076 4.86797 7.04458 3.77368 8.66645 3.06592" stroke="#1E7770" stroke-width="2.38333" stroke-linecap="round" stroke-linejoin="round"/>
</svg>
