<svg width="26" height="26" viewBox="0 0 26 26" fill="none" xmlns="http://www.w3.org/2000/svg">
<path d="M13.0003 23.8334C18.9834 23.8334 23.8337 18.9832 23.8337 13.0001C23.8337 7.017 18.9834 2.16675 13.0003 2.16675C7.01724 2.16675 2.16699 7.017 2.16699 13.0001C2.16699 18.9832 7.01724 23.8334 13.0003 23.8334Z" stroke="#1E7770" stroke-width="2.38333" stroke-linecap="round" stroke-linejoin="round"/>
<path d="M9.84766 9.74988C10.1024 9.02586 10.6051 8.41533 11.2668 8.02645C11.9285 7.63756 12.7065 7.4954 13.4629 7.62516C14.2194 7.75491 14.9055 8.1482 15.3998 8.73537C15.8941 9.32254 16.1646 10.0657 16.1635 10.8332C16.1635 12.9999 12.9135 14.0832 12.9135 14.0832" stroke="#1E7770" stroke-width="2.38333" stroke-linecap="round" stroke-linejoin="round"/>
<path d="M13 18.4167H13.01" stroke="#1E7770" stroke-width="2.38333" stroke-linecap="round" stroke-linejoin="round"/>
</svg>
