<svg width="26" height="26" viewBox="0 0 26 26" fill="none" xmlns="http://www.w3.org/2000/svg">
<path d="M17.3337 22.75V20.5833C17.3337 19.4341 16.8771 18.3319 16.0645 17.5192C15.2518 16.7065 14.1496 16.25 13.0003 16.25H6.50033C5.35105 16.25 4.24885 16.7065 3.4362 17.5192C2.62354 18.3319 2.16699 19.4341 2.16699 20.5833V22.75" stroke="#1E7770" stroke-width="2.38333" stroke-linecap="round" stroke-linejoin="round"/>
<path d="M9.75033 11.9167C12.1436 11.9167 14.0837 9.97657 14.0837 7.58333C14.0837 5.1901 12.1436 3.25 9.75033 3.25C7.35709 3.25 5.41699 5.1901 5.41699 7.58333C5.41699 9.97657 7.35709 11.9167 9.75033 11.9167Z" stroke="#1E7770" stroke-width="2.38333" stroke-linecap="round" stroke-linejoin="round"/>
<path d="M23.833 22.75V20.5834C23.8323 19.6232 23.5127 18.6905 22.9245 17.9317C22.3362 17.1729 21.5126 16.6309 20.583 16.3909" stroke="#1E7770" stroke-width="2.38333" stroke-linecap="round" stroke-linejoin="round"/>
<path d="M17.333 3.39087C18.2651 3.62953 19.0913 4.17163 19.6813 4.93171C20.2713 5.69178 20.5915 6.6266 20.5915 7.58879C20.5915 8.55097 20.2713 9.48579 19.6813 10.2459C19.0913 11.0059 18.2651 11.548 17.333 11.7867" stroke="#1E7770" stroke-width="2.38333" stroke-linecap="round" stroke-linejoin="round"/>
</svg>
