<svg width="26" height="26" viewBox="0 0 26 26" fill="none" xmlns="http://www.w3.org/2000/svg">
<path d="M15.167 2.16675V6.50008C15.167 7.07472 15.3953 7.62582 15.8016 8.03215C16.2079 8.43848 16.759 8.66675 17.3337 8.66675H21.667" stroke="#1E7770" stroke-width="2.38333" stroke-linecap="round" stroke-linejoin="round"/>
<path d="M4.62334 22.7501C4.81304 23.0787 5.08569 23.3517 5.41403 23.5418C5.74236 23.7319 6.11486 23.8325 6.49426 23.8334H19.4997C20.0743 23.8334 20.6254 23.6051 21.0317 23.1988C21.4381 22.7925 21.6663 22.2414 21.6663 21.6667V7.58341L16.2497 2.16675H6.49967C5.92504 2.16675 5.37394 2.39502 4.96761 2.80135C4.56128 3.20768 4.33301 3.75878 4.33301 4.33341V7.58341" stroke="#1E7770" stroke-width="2.38333" stroke-linecap="round" stroke-linejoin="round"/>
<path d="M9.75 19.5L8.125 17.875" stroke="#1E7770" stroke-width="2.38333" stroke-linecap="round" stroke-linejoin="round"/>
<path d="M5.41699 18.4167C7.21192 18.4167 8.66699 16.9617 8.66699 15.1667C8.66699 13.3718 7.21192 11.9167 5.41699 11.9167C3.62207 11.9167 2.16699 13.3718 2.16699 15.1667C2.16699 16.9617 3.62207 18.4167 5.41699 18.4167Z" stroke="#1E7770" stroke-width="2.38333" stroke-linecap="round" stroke-linejoin="round"/>
</svg>
