<svg width="26" height="26" viewBox="0 0 26 26" fill="none" xmlns="http://www.w3.org/2000/svg">
<path d="M16.2503 2.16675H9.75033C9.15202 2.16675 8.66699 2.65177 8.66699 3.25008V5.41675C8.66699 6.01506 9.15202 6.50008 9.75033 6.50008H16.2503C16.8486 6.50008 17.3337 6.01506 17.3337 5.41675V3.25008C17.3337 2.65177 16.8486 2.16675 16.2503 2.16675Z" stroke="#1E7770" stroke-width="2.38333" stroke-linecap="round" stroke-linejoin="round"/>
<path d="M17.333 4.33325H19.4997C20.0743 4.33325 20.6254 4.56153 21.0317 4.96785C21.4381 5.37418 21.6663 5.92528 21.6663 6.49992V21.6666C21.6663 22.2412 21.4381 22.7923 21.0317 23.1987C20.6254 23.605 20.0743 23.8333 19.4997 23.8333H6.49967C5.92504 23.8333 5.37394 23.605 4.96761 23.1987C4.56128 22.7923 4.33301 22.2412 4.33301 21.6666V6.49992C4.33301 5.92528 4.56128 5.37418 4.96761 4.96785C5.37394 4.56153 5.92504 4.33325 6.49967 4.33325H8.66634" stroke="#1E7770" stroke-width="2.38333" stroke-linecap="round" stroke-linejoin="round"/>
<path d="M13 11.9167H17.3333" stroke="#1E7770" stroke-width="2.38333" stroke-linecap="round" stroke-linejoin="round"/>
<path d="M13 17.3333H17.3333" stroke="#1E7770" stroke-width="2.38333" stroke-linecap="round" stroke-linejoin="round"/>
<path d="M8.66699 11.9167H8.67699" stroke="#1E7770" stroke-width="2.38333" stroke-linecap="round" stroke-linejoin="round"/>
<path d="M8.66699 17.3333H8.67699" stroke="#1E7770" stroke-width="2.38333" stroke-linecap="round" stroke-linejoin="round"/>
</svg>
