<svg width="26" height="26" viewBox="0 0 26 26" fill="none" xmlns="http://www.w3.org/2000/svg">
<path d="M21.6663 14.0833C21.6663 19.5 17.8747 22.2083 13.368 23.7791C13.132 23.8591 12.8757 23.8553 12.6422 23.7683C8.12467 22.2083 4.33301 19.5 4.33301 14.0833V6.49996C4.33301 6.21264 4.44714 5.93709 4.65031 5.73393C4.85347 5.53076 5.12902 5.41662 5.41634 5.41662C7.58301 5.41662 10.2913 4.11662 12.1763 2.46996C12.4059 2.27387 12.6978 2.16614 12.9997 2.16614C13.3015 2.16614 13.5935 2.27387 13.823 2.46996C15.7188 4.12746 18.4163 5.41662 20.583 5.41662C20.8703 5.41662 21.1459 5.53076 21.349 5.73393C21.5522 5.93709 21.6663 6.21264 21.6663 6.49996V14.0833Z" stroke="#1E7770" stroke-width="2.38333" stroke-linecap="round" stroke-linejoin="round"/>
<path d="M13 8.66663V13" stroke="#1E7770" stroke-width="2.38333" stroke-linecap="round" stroke-linejoin="round"/>
<path d="M13 17.3334H13.01" stroke="#1E7770" stroke-width="2.38333" stroke-linecap="round" stroke-linejoin="round"/>
</svg>
